HIERARCHY
ROOT Hips
{
  OFFSET -4.35178 90.3298 111.633
  CHANNELS 6 Xposition Yposition Zposition Zrotation Xrotation Yrotation
  JOINT LeftUpLeg
  {
    OFFSET 0.103456 1.85784 10.5485
    CHANNELS 6 Xposition Yposition Zposition Zrotation Xrotation Yrotation
    JOINT LeftLeg
    {
      OFFSET 43.5 -4.2e-05 0
      CHANNELS 6 Xposition Yposition Zposition Zrotation Xrotation Yrotation
      JOINT LeftFoot
      {
        OFFSET 42.3722 1.9e-05 0
        CHANNELS 6 Xposition Yposition Zposition Zrotation Xrotation Yrotation
        JOINT LeftToe
        {
          OFFSET 17.3 0 0
          CHANNELS 6 Xposition Yposition Zposition Zrotation Xrotation Yrotation
          End Site
          {
            OFFSET 0 0 0
          }
        }
      }
    }
  }
  JOINT RightUpLeg
  {
    OFFSET 0.103456 1.85782 -10.5485
    CHANNELS 6 Xposition Yposition Zposition Zrotation Xrotation Yrotation
    JOINT RightLeg
    {
      OFFSET 43.5 -2.7e-05 0
      CHANNELS 6 Xposition Yposition Zposition Zrotation Xrotation Yrotation
      JOINT RightFoot
      {
        OFFSET 42.3723 0 0
        CHANNELS 6 Xposition Yposition Zposition Zrotation Xrotation Yrotation
        JOINT RightToe
        {
          OFFSET 17.3 0 1.7e-05
          CHANNELS 6 Xposition Yposition Zposition Zrotation Xrotation Yrotation
          End Site
          {
            OFFSET 0 0 0
          }
        }
      }
    }
  }
  JOINT Spine
  {
    OFFSET 6.90197 -2.60373 0
    CHANNELS 6 Xposition Yposition Zposition Zrotation Xrotation Yrotation
    JOINT Spine1
    {
      OFFSET 12.5881 0 0
      CHANNELS 6 Xposition Yposition Zposition Zrotation Xrotation Yrotation
      JOINT Spine2
      {
        OFFSET 12.3432 -1.8e-05 0
        CHANNELS 6 Xposition Yposition Zposition Zrotation Xrotation Yrotation
        JOINT Neck
        {
          OFFSET 25.8329 2.3e-05 0
          CHANNELS 6 Xposition Yposition Zposition Zrotation Xrotation Yrotation
          JOINT Head
          {
            OFFSET 11.7666 0 0
            CHANNELS 6 Xposition Yposition Zposition Zrotation Xrotation Yrotation
            End Site
            {
              OFFSET 0 0 0
            }
          }
        }
        JOINT LeftShoulder
        {
          OFFSET 19.7459 -1.48035 6.0001
          CHANNELS 6 Xposition Yposition Zposition Zrotation Xrotation Yrotation
          JOINT LeftArm
          {
            OFFSET 11.2841 1.8e-05 -2e-05
            CHANNELS 6 Xposition Yposition Zposition Zrotation Xrotation Yrotation
            JOINT LeftForeArm
            {
              OFFSET 33 -1.3e-05 1.9e-05
              CHANNELS 6 Xposition Yposition Zposition Zrotation Xrotation Yrotation
              JOINT LeftHand
              {
                OFFSET 25.2 3.2e-05 1.1e-05
                CHANNELS 6 Xposition Yposition Zposition Zrotation Xrotation Yrotation
                End Site
                {
                  OFFSET 0 0 0
                }
              }
            }
          }
        }
        JOINT RightShoulder
        {
          OFFSET 19.7461 -1.48036 -6.00008
          CHANNELS 6 Xposition Yposition Zposition Zrotation Xrotation Yrotation
          JOINT RightArm
          {
            OFFSET 11.2841 0 0
            CHANNELS 6 Xposition Yposition Zposition Zrotation Xrotation Yrotation
            JOINT RightForeArm
            {
              OFFSET 33.0001 1.6e-05 0
              CHANNELS 6 Xposition Yposition Zposition Zrotation Xrotation Yrotation
              JOINT RightHand
              {
                OFFSET 25.1998 0.000123 0.000432
                CHANNELS 6 Xposition Yposition Zposition Zrotation Xrotation Yrotation
                End Site
                {
                  OFFSET 0 0 0
                }
              }
            }
          }
        }
      }
    }
  }
}
MOTION
Frames:	11
Frame Time:	0.0333333
56.737 86.1106 -87.9695 79.6257 -21.1606 -0.537117 0.103456 1.85784 10.5485 14.8877 26.0702 175.102 43.5 -4.2e-05 1e-05 -33.2396 -11.6467 -2.15051 42.3722 1.9e-05 1.42109e-14 90.2875 3.98637 4.12299 17.3 -7.10543e-15 3e-06 21.4546 -1e-06 0.003093 0.103456 1.85782 -10.5485 -11.7791 -12.6657 -164.848 43.5 -2.7e-05 4e-06 -16.8738 10.1687 2.29909 42.3723 3.55271e-15 1e-05 73.31 -2.77766 5.88562 17.3 -6e-06 1.7e-05 21.4546 -1.9e-05 -0.003116 6.90197 -2.60373 -3e-06 9.08946 -4.47185 -0.420435 12.5881 1e-05 8e-06 8.30363 -8.87964 -0.0278536 12.3432 -1.8e-05 -5e-06 8.16174 -8.73947 0.551117 25.8329 2.3e-05 7e-06 7.82632 -23.9604 10.5827 11.7666 -8e-06 -6e-06 8.98982 -41.5993 16.9516 19.7459 -1.48035 6.0001 177.87 -7.3897 -79.0925 11.2841 1.8e-05 -2e-05 -3.30304 -16.1502 56.9252 33 -1.3e-05 1.9e-05 -43.3692 4.35159 -7.70828 25.2 3.2e-05 1.1e-05 -7.04726 36.3604 -5.05076 19.7461 -1.48036 -6.00008 -170.328 -7.45394 76.2734 11.2841 7.10543e-15 -1e-06 -37.3413 -20.023 -52.8497 33.0001 1.6e-05 -1e-06 -37.4337 -1.63412 9.65539 25.1998 0.000123 0.000432 -8.1555 -10.6107 2.53848 
59.307 87.5436 -89.7234 80.2243 -21.5866 -0.428613 0.103456 1.85784 10.5485 13.8687 25.5322 176.063 43.5 -4.2e-05 1e-05 -29.7585 -11.3599 -1.89335 42.3722 1.9e-05 0 87.3683 3.64075 4.95912 17.3 0 3e-06 21.4546 -1e-06 0.003093 0.103456 1.85782 -10.5485 -15.2209 -12.2701 -167.64 43.5 -2.7e-05 4e-06 -27.3003 11.5341 1.28191 42.3723 0 1e-05 75.528 0.124961 -2.65704 17.3 -6e-06 1.7e-05 21.4546 -1.9e-05 -0.003116 6.90197 -2.60373 -3e-06 9.11386 -4.46695 -0.447236 12.5881 1e-05 8e-06 8.35051 -8.87362 -0.0804168 12.3432 -1.8e-05 -5e-06 8.20869 -8.73601 0.498333 25.8329 2.3e-05 7e-06 7.52085 -23.7275 10.3242 11.7666 -8e-06 -6e-06 7.99088 -40.8826 16.3023 19.7459 -1.48035 6.0001 178.986 -6.72345 -77.7063 11.2841 1.8e-05 -2e-05 0.248983 -15.4629 58.1657 33 -1.3e-05 1.9e-05 -38.6706 3.40374 -8.56593 25.2 3.2e-05 1.1e-05 -4.94126 34.902 -4.4783 19.7461 -1.48036 -6.00008 -170.913 -7.19464 76.8674 11.2841 0 -1e-06 -37.739 -20.0344 -52.4891 33.0001 1.6e-05 -1e-06 -38.4993 -1.44353 9.2605 25.1998 0.000123 0.000432 -7.78952 -10.3352 2.08153 
61.8724 88.7012 -91.6055 81.0965 -21.108 -0.178306 0.103456 1.85784 10.5485 13.0163 24.7983 177.445 43.5 -4.2e-05 1e-05 -26.1794 -10.9564 -1.96487 42.3722 1.9e-05 0 84.8342 3.56148 5.57054 17.3 -7.10543e-15 3e-06 21.4546 -1e-06 0.003093 0.103456 1.85782 -10.5485 -19.1874 -9.79967 -170.932 43.5 -2.7e-05 4e-06 -37.8667 12.2687 0.0198221 42.3723 7.10543e-15 1e-05 77.835 2.22095 -8.5584 17.3 -6e-06 1.7e-05 21.4546 -1.9e-05 -0.003116 6.90197 -2.60373 -3e-06 9.13964 -4.60776 -0.329362 12.5881 1e-05 8e-06 8.41754 -9.13289 0.182873 12.3432 -1.8e-05 -5e-06 8.28111 -8.97741 0.778034 25.8329 2.3e-05 7e-06 7.02958 -23.4322 10.063 11.7666 -8e-06 -6e-06 7.30488 -40.2836 16.2633 19.7459 -1.48035 6.0001 -179.756 -5.96696 -76.5099 11.2841 1.8e-05 -2e-05 3.214 -14.2227 59.5848 33 -1.3e-05 1.9e-05 -35.3337 1.41571 -8.8098 25.2 3.2e-05 1.1e-05 -2.74428 33.3004 -3.81342 19.7461 -1.48036 -6.00008 -171.245 -6.96856 77.0222 11.2841 7.10543e-15 -1e-06 -36.2856 -18.9582 -51.0362 33.0001 1.6e-05 -1e-06 -38.1885 -1.07043 9.31029 25.1998 0.000123 0.000432 -6.34559 -10.2452 1.74562 
64.3848 89.4726 -93.579 82.1084 -20.114 0.11684 0.103456 1.85784 10.5485 10.7139 23.7706 178.974 43.5 -4.2e-05 1e-05 -23.9276 -10.967 -1.61994 42.3722 1.9e-05 -1.42109e-14 82.952 3.57629 6.08412 17.3 -7.10543e-15 3e-06 21.4546 -1e-06 0.003093 0.103456 1.85782 -10.5485 -22.6078 -6.15895 -173.91 43.5 -2.7e-05 4e-06 -48.1532 12.5799 -1.90738 42.3723 -7.10543e-15 1e-05 78.782 4.08693 -11.9248 17.3 -6e-06 1.7e-05 21.4546 -1.9e-05 -0.003116 6.90197 -2.60373 -3e-06 9.17547 -4.71092 -0.140161 12.5881 1e-05 8e-06 8.50888 -9.30423 0.583183 12.3432 -1.8e-05 -5e-06 8.37484 -9.12229 1.1886 25.8329 2.3e-05 7e-06 6.47306 -23.1009 9.83256 11.7666 -8e-06 -6e-06 6.96158 -39.9031 16.7992 19.7459 -1.48035 6.0001 -178.528 -5.25921 -75.4126 11.2841 1.8e-05 -2e-05 4.57943 -12.3409 60.564 33 -1.3e-05 1.9e-05 -33.5298 0.456523 -8.76848 25.2 3.2e-05 1.1e-05 -1.36285 32.485 -3.2108 19.7461 -1.48036 -6.00008 -171.398 -6.69086 76.8887 11.2841 1.42109e-14 -1e-06 -33.5758 -16.9433 -49.2671 33.0001 1.6e-05 -1e-06 -37.19 -0.675637 9.87108 25.1998 0.000123 0.000432 -5.23482 -9.93995 1.52505 
66.7528 89.874 -95.5624 83.2432 -19.0412 0.427401 0.103456 1.85784 10.5485 9.30815 21.8533 -179.716 43.5 -4.2e-05 1e-05 -20.8352 -10.9253 -1.35814 42.3722 1.9e-05 0 81.8058 2.72427 6.27965 17.3 -3.55271e-15 3e-06 21.4546 -1e-06 0.003093 0.103456 1.85782 -10.5485 -24.5116 -2.14481 -177.178 43.5 -2.7e-05 4e-06 -56.9193 12.8004 -3.13984 42.3723 0 1e-05 78.5972 5.34792 -14.0741 17.3 -6e-06 1.7e-05 21.4546 -1.9e-05 -0.003116 6.90197 -2.60373 -3e-06 9.14481 -4.68974 0.0802927 12.5881 1e-05 8e-06 8.46241 -9.22456 1.01783 12.3432 -1.8e-05 -5e-06 8.32404 -9.01668 1.61678 25.8329 2.3e-05 7e-06 6.08176 -22.9995 9.71698 11.7666 -8e-06 -6e-06 6.83544 -39.9432 17.3323 19.7459 -1.48035 6.0001 -177.454 -4.97497 -74.3305 11.2841 1.8e-05 -2e-05 4.07208 -9.83928 60.8986 33 -1.3e-05 1.9e-05 -32.6765 0.621092 -8.56696 25.2 3.2e-05 1.1e-05 -1.06454 32.7395 -3.16824 19.7461 -1.48036 -6.00008 -171.557 -6.30702 76.6125 11.2841 7.10543e-15 -1e-06 -31.15 -15.31 -47.785 33.0001 1.6e-05 -1e-06 -36.0812 -0.73045 10.6503 25.1998 0.000123 0.000432 -4.93069 -9.93262 1.74568 
68.9718 89.9628 -97.5345 84.396 -17.9535 0.750226 0.103456 1.85784 10.5485 8.15179 19.9793 -178.44 43.5 -4.2e-05 1e-05 -17.661 -10.9361 -1.04391 42.3722 1.9e-05 0 81.1146 1.79919 6.13199 17.3 0 3e-06 21.4546 -1e-06 0.003093 0.103456 1.85782 -10.5485 -24.4613 1.5926 178.594 43.5 -2.7e-05 4e-06 -63.106 13.0476 -3.02589 42.3723 7.10543e-15 1e-05 78.6457 6.39229 -16.3386 17.3 -6e-06 1.7e-05 21.4546 -1.9e-05 -0.003116 6.90197 -2.60373 -3e-06 9.042 -4.61377 0.287862 12.5881 1e-05 8e-06 8.26622 -9.04047 1.4107 12.3432 -1.8e-05 -5e-06 8.12093 -8.81169 1.9963 25.8329 2.3e-05 7e-06 5.7862 -23.0581 9.62304 11.7666 -8e-06 -6e-06 7.29915 -40.2506 17.7927 19.7459 -1.48035 6.0001 -176.442 -5.06847 -73.2138 11.2841 1.8e-05 -2e-05 2.70668 -7.04497 60.8013 33 -1.3e-05 1.9e-05 -32.3438 1.41317 -8.34648 25.2 3.2e-05 1.1e-05 -1.3924 33.6789 -3.63713 19.7461 -1.48036 -6.00008 -171.866 -5.82343 76.2633 11.2841 0 -1e-06 -29.3775 -14.4198 -46.4459 33.0001 1.6e-05 -1e-06 -35.1987 -0.835142 11.3078 25.1998 0.000123 0.000432 -4.9644 -10.3421 2.39228 
71.1321 89.817 -99.5145 85.6182 -17.1041 1.06723 0.103456 1.85784 10.5485 7.2433 18.6616 -177.086 43.5 -4.2e-05 1e-05 -14.1824 -10.903 -0.814743 42.3722 1.9e-05 0 80.5813 0.565302 5.38605 17.3 3.55271e-15 3e-06 21.4546 -1e-06 0.003093 0.103456 1.85782 -10.5485 -22.8822 4.54744 173.399 43.5 -2.7e-05 4e-06 -66.2886 13.3403 -1.66135 42.3723 -7.10543e-15 1e-05 78.3565 6.22966 -19.8531 17.3 -6e-06 1.7e-05 21.4546 -1.9e-05 -0.003116 6.90197 -2.60373 -3e-06 8.87045 -4.49318 0.468959 12.5881 1e-05 8e-06 7.92687 -8.77607 1.73741 12.3432 -1.8e-05 -5e-06 7.77296 -8.53291 2.30452 25.8329 2.3e-05 7e-06 5.56815 -23.0795 9.52722 11.7666 -8e-06 -6e-06 8.1586 -40.5413 18.1776 19.7459 -1.48035 6.0001 -175.472 -5.42576 -72.1403 11.2841 1.8e-05 -2e-05 2.02161 -4.77511 60.7932 33 -1.3e-05 1.9e-05 -32.0488 2.35778 -8.40143 25.2 3.2e-05 1.1e-05 -1.71134 34.3626 -3.8639 19.7461 -1.48036 -6.00008 -172.235 -5.41046 75.9311 11.2841 0 -1e-06 -28.303 -14.2845 -45.14 33.0001 1.6e-05 -1e-06 -34.7721 -0.902805 11.7169 25.1998 0.000123 0.000432 -4.88284 -11.0411 3.18985 
73.2397 89.4927 -101.621 86.8285 -16.7879 1.33402 0.103456 1.85784 10.5485 6.82762 17.9095 -175.668 43.5 -4.2e-05 1e-05 -10.0713 -10.94 -0.667401 42.3722 1.9e-05 -7.10543e-15 79.7986 -1.12489 4.37196 17.3 0 3e-06 21.4546 -1e-06 0.003093 0.103456 1.85782 -10.5485 -20.0625 6.64154 167.953 43.5 -2.7e-05 4e-06 -66.3108 13.8419 0.276102 42.3723 0 1e-05 77.7126 6.28559 -24.2277 17.3 -6e-06 1.7e-05 21.4546 -1.9e-05 -0.003116 6.90197 -2.60373 -3e-06 8.6819 -4.29048 0.591726 12.5881 1e-05 8e-06 7.54392 -8.35837 1.93231 12.3432 -1.8e-05 -5e-06 7.37852 -8.10994 2.47129 25.8329 2.3e-05 7e-06 5.26991 -22.8809 9.29529 11.7666 -8e-06 -6e-06 9.41833 -40.578 18.778 19.7459 -1.48035 6.0001 -174.5 -5.80795 -71.0818 11.2841 1.8e-05 -2e-05 2.1834 -2.99607 60.6509 33 -1.3e-05 1.9e-05 -31.8304 3.18436 -8.67368 25.2 3.2e-05 1.1e-05 -2.04833 34.7296 -3.90188 19.7461 -1.48036 -6.00008 -172.573 -5.03649 75.7096 11.2841 1.42109e-14 -1e-06 -27.5827 -14.3445 -44.0805 33.0001 1.6e-05 -1e-06 -34.9248 -1.20202 12.0789 25.1998 0.000123 0.000432 -4.97684 -11.6511 3.80758 
75.3333 88.9423 -104.011 88.0602 -17.2594 1.5412 0.103456 1.85784 10.5485 6.56825 16.9098 -174.035 43.5 -4.2e-05 1e-05 -6.18669 -11.2084 -0.511534 42.3722 1.9e-05 0 79.105 -3.77201 3.76756 17.3 3.55271e-15 3e-06 21.4546 -1e-06 0.003093 0.103456 1.85782 -10.5485 -16.494 8.12867 163.13 43.5 -2.7e-05 4e-06 -63.4364 14.7973 2.05673 42.3723 1.42109e-14 1e-05 76.8883 8.14605 -28.423 17.3 -6e-06 1.7e-05 21.4546 -1.9e-05 -0.003116 6.90197 -2.60373 -3e-06 8.50768 -4.01221 0.667742 12.5881 1e-05 8e-06 7.18208 -7.79898 2.02334 12.3432 -1.8e-05 -5e-06 7.00269 -7.55167 2.52537 25.8329 2.3e-05 7e-06 4.95408 -22.4548 9.00197 11.7666 -8e-06 -6e-06 10.252 -40.2979 19.3625 19.7459 -1.48035 6.0001 -173.603 -6.07634 -70.1967 11.2841 1.8e-05 -2e-05 3.89208 -2.18809 60.6276 33 -1.3e-05 1.9e-05 -31.4408 3.34825 -9.14919 25.2 3.2e-05 1.1e-05 -1.89175 34.2689 -3.46107 19.7461 -1.48036 -6.00008 -172.854 -4.72063 75.7344 11.2841 1.42109e-14 -1e-06 -26.801 -13.9758 -43.1951 33.0001 1.6e-05 -1e-06 -35.7016 -1.4117 12.3305 25.1998 0.000123 0.000432 -5.05524 -11.7998 3.93017 
77.3997 88.21 -106.811 89.1179 -18.3537 1.68965 0.103456 1.85784 10.5485 5.73616 15.3176 -171.874 43.5 -4.2e-05 1e-05 -4.3847 -11.7712 -0.429364 42.3722 1.9e-05 1.42109e-14 78.7096 -6.62455 4.13849 17.3 -3.55271e-15 3e-06 21.4546 -1e-06 0.003093 0.103456 1.85782 -10.5485 -12.296 9.05086 159.29 43.5 -2.7e-05 4e-06 -58.1101 16.1029 3.43006 42.3723 0 1e-05 75.7917 10.4229 -31.4734 17.3 -6e-06 1.7e-05 21.4546 -1.9e-05 -0.003116 6.90197 -2.60373 -3e-06 8.38452 -3.71585 0.672366 12.5881 1e-05 8e-06 6.91796 -7.21288 1.97386 12.3432 -1.8e-05 -5e-06 6.72523 -6.9739 2.43785 25.8329 2.3e-05 7e-06 4.63905 -21.8455 8.67741 11.7666 -8e-06 -6e-06 10.5884 -39.7241 19.8576 19.7459 -1.48035 6.0001 -172.854 -6.22688 -69.4508 11.2841 1.8e-05 -2e-05 6.40356 -2.00322 60.4296 33 -1.3e-05 1.9e-05 -30.8688 2.85341 -9.71582 25.2 3.2e-05 1.1e-05 -0.896975 33.4911 -3.14415 19.7461 -1.48036 -6.00008 -173.233 -4.43698 75.8764 11.2841 0 -1e-06 -26.2802 -13.5148 -42.5906 33.0001 1.6e-05 -1e-06 -36.9365 -1.36532 12.3509 25.1998 0.000123 0.000432 -5.22338 -11.5564 3.68755 
79.5201 87.3775 -110.134 90.0261 -19.6375 1.79692 0.103456 1.85784 10.5485 3.76938 13.3249 -169.055 43.5 -4.2e-05 1e-05 -5.63222 -12.5061 -0.468694 42.3722 1.9e-05 1.42109e-14 78.8413 -8.78511 5.40101 17.3 -3.55271e-15 3e-06 21.4546 -1e-06 0.003093 0.103456 1.85782 -10.5485 -7.67406 9.9037 156.747 43.5 -2.7e-05 4e-06 -51.3878 16.5295 4.6252 42.3723 0 1e-05 72.5026 12.4639 -32.2593 17.3 -6e-06 1.7e-05 21.4546 -1.9e-05 -0.003116 6.90197 -2.60373 -3e-06 8.25319 -3.49195 0.564601 12.5881 1e-05 8e-06 6.63659 -6.78906 1.71283 12.3432 -1.8e-05 -5e-06 6.43589 -6.57136 2.14992 25.8329 2.3e-05 7e-06 4.17423 -20.8595 8.14687 11.7666 -8e-06 -6e-06 11.7372 -38.5655 20.6565 19.7459 -1.48035 6.0001 -172.267 -6.44577 -68.9226 11.2841 1.8e-05 -2e-05 8.88126 -1.94872 59.7691 33 -1.3e-05 1.9e-05 -30.1052 2.00026 -10.2537 25.2 3.2e-05 1.1e-05 0.28617 32.6242 -2.88942 19.7461 -1.48036 -6.00008 -173.784 -4.20005 75.7282 11.2841 -1.42109e-14 -1e-06 -26.5514 -13.6052 -42.3109 33.0001 1.6e-05 -1e-06 -38.3016 -1.40602 12.1804 25.1998 0.000123 0.000432 -5.40914 -11.8408 3.87548 
